{
 "accessors": [
  {
   "componentType": 5126,
   "type": "VEC3",
   "count": 840,
   "max": [
    5.236000061035156,
    1.0130000114440918,
    0.10000000149011612
   ],
   "min": [
    0.017000000923871994,
    0,
    0
   ],
   "bufferView": 0
  },
  {
   "componentType": 5126,
   "type": "VEC3",
   "count": 840,
   "bufferView": 1
  },
  {
   "componentType": 5126,
   "type": "VEC2",
   "count": 840,
   "bufferView": 2
  },
  {
   "componentType": 5123,
   "type": "SCALAR",
   "count": 840,
   "bufferView": 3
  }
 ],
 "asset": {
  "version": "2.0",
  "generator": "clara.io"
 },
 "bufferViews": [
  {
   "buffer": 0,
   "byteOffset": 0,
   "byteLength": 10080,
   "target": 34962,
   "byteStride": 12
  },
  {
   "buffer": 0,
   "byteOffset": 10080,
   "byteLength": 10080,
   "target": 34962,
   "byteStride": 12
  },
  {
   "buffer": 0,
   "byteOffset": 20160,
   "byteLength": 6720,
   "target": 34962,
   "byteStride": 8
  },
  {
   "buffer": 0,
   "byteOffset": 26880,
   "byteLength": 1680,
   "target": 34963
  }
 ],
 "buffers": [
  {
   "byteLength": 28560,
   "uri": "data:application/octet-stream;base64,"
  }
 ],
 "materials": [
  {}
 ],
 "meshes": [
  {
   "primitives": [
    {
     "mode": 4,
     "attributes": {
      "POSITION": 0,
      "NORMAL": 1,
      "TEXCOORD_0": 2
     },
     "indices": 3,
     "material": 0
    }
   ]
  }
 ],
 "nodes": [
  {
   "name": "Text",
   "translation": [
    -2.700000047683716,
    0,
    0
   ],
   "mesh": 0
  }
 ],
 "scene": 0,
 "scenes": [
  {
   "nodes": [
    0
   ]
  }
 ]
}